# xmcd
#
# Track frame offsets:
#	150
#	15938
#	37623
#	54002
#	71792
#	86502
#	102190
#	115752
#	131273
#	144000
#	156185
#	170930
#	187378
#	198955
#	221353
#	239533
#	252255
#
# Disc length: 3524 seconds
#
# Revision: 1
# Processed by: cddbd v1.5PL3 Copyright (c) Steve Scherf et al.
# Submitted via: EasyCDDAExtractor 6.2.0.3
#
DISCID=dd0dc211
DTITLE=Celebridade Samba
DYEAR=2004
DGENRE=Samba
TTITLE0=Pecadora - Grupo Revelação
TTITLE1=Ex-Amor - Martinho Da Vila E Simone
TTITLE2=Caviar - Zeca Pagodinho
TTITLE3=A Ordem É Sambar - Ney Matogrosso E Pedro Luis E A
TTITLE4=Essa Noite Fiquei Só - Grupo Pur'Amizade
TTITLE5=Cigana - Banda Raça Negra
TTITLE6=Paixão Brasileira - Razão Brasileira
TTITLE7=Quantas Lágrimas - Teresa Cristina E Grupo Semente
TTITLE8=Falso Amor Sincero - Picolé
TTITLE9=Tudo Menos Amor - Só Pra Contrariar
TTITLE10=Goiabada-Cascão - Dudu Nobre
TTITLE11=Vendi Meu Peixe - Jorge Aragão
TTITLE12=Um Raro Prazer - Leci Brandão
TTITLE13=Lucidez - Grupo Fundo De Quintal
TTITLE14=Encaixe Perfeito - Swing and Simpatia
TTITLE15=Dona Carola - Vavá
TTITLE16=Alvorada - Nalanda
EXTD=
EXTT0=
EXTT1=
EXTT2=
EXTT3=
EXTT4=
EXTT5=
EXTT6=
EXTT7=
EXTT8=
EXTT9=
EXTT10=
EXTT11=
EXTT12=
EXTT13=
EXTT14=
EXTT15=
EXTT16=
PLAYORDER=
